# xmcd
#
# Track frame offsets:
#	150
#	10515
#	22142
#	33857
#	45477
#	57885
#	65792
#	78317
#	88985
#	103275
#	115090
#	126412
#	138387
#	148417
#	156032
#	162020
#	171432
#	182765
#	196442
#	207322
#
# Disc length: 2851 seconds
#
# Revision: 1
# Processed by: cddbd v1.4PL0 Copyright (c) Steve Scherf et al.
# Submitted via: audiograbber 1.80.04
#
DISCID=220b2114
DTITLE=Jim Reeves - Just call me lonesome
DYEAR=1997
DGENRE=Country
TTITLE0=Just call me lonesome
TTITLE1=Whispering Willow
TTITLE2=I'll follow you
TTITLE3=If you love me don't leave me
TTITLE4=Drinking Tequila
TTITLE5=Till the end of the world
TTITLE6=Heart Breaking Baby
TTITLE7=Beatin' On The Ding Dong
TTITLE8=Highway to Nowhere
TTITLE9=Your Old Love Letters
TTITLE10=Wagon Load of Love
TTITLE11=Mexican Joe
TTITLE12=Home
TTITLE13=Oklahoma Hills
TTITLE14=Have I Told You Lately That I Love You
TTITLE15=Dear Hearts and Gentle People
TTITLE16=It's Hard to Love Just One
TTITLE17=What Were You Doing Last Night
TTITLE18=I Love You More
TTITLE19=I'm Beginning to Forget You
EXTD=
EXTT0=
EXTT1=
EXTT2=
EXTT3=
EXTT4=
EXTT5=
EXTT6=
EXTT7=
EXTT8=
EXTT9=
EXTT10=
EXTT11=
EXTT12=
EXTT13=
EXTT14=
EXTT15=
EXTT16=
EXTT17=
EXTT18=
EXTT19=
PLAYORDER=
